<svg xmlns="http://www.w3.org/2000/svg" viewBox="0 0 100 100" width="100" height="100">
  <defs>
    <linearGradient id="leafGradient" x1="0%" y1="0%" x2="100%" y2="100%">
      <stop offset="0%" style="stop-color:#66bb6a"/>
      <stop offset="50%" style="stop-color:#4caf50"/>
      <stop offset="100%" style="stop-color:#2e7d32"/>
    </linearGradient>
  </defs>
  <!-- Main leaf shape -->
  <path d="M50 10 C20 25 10 55 15 80 C25 85 40 75 50 60 C60 75 75 85 85 80 C90 55 80 25 50 10 Z" 
        fill="url(#leafGradient)"/>
  <!-- Center vein (white curved line) -->
  <path d="M50 18 Q48 40 50 60 Q52 75 55 82" 
        stroke="white" 
        stroke-width="3" 
        stroke-linecap="round"
        fill="none"/>
  <!-- Left curved vein -->
  <path d="M38 35 Q44 42 50 45" 
        stroke="white" 
        stroke-width="2" 
        stroke-linecap="round"
        fill="none"
        opacity="0.8"/>
  <!-- Right curved vein -->
  <path d="M62 35 Q56 42 50 45" 
        stroke="white" 
        stroke-width="2" 
        stroke-linecap="round"
        fill="none"
        opacity="0.8"/>
  <!-- Left lower vein -->
  <path d="M32 50 Q41 54 50 55" 
        stroke="white" 
        stroke-width="2" 
        stroke-linecap="round"
        fill="none"
        opacity="0.7"/>
  <!-- Right lower vein -->
  <path d="M68 50 Q59 54 50 55" 
        stroke="white" 
        stroke-width="2" 
        stroke-linecap="round"
        fill="none"
        opacity="0.7"/>
</svg>
